<?xml version="1.0" standalone="no"?>
<!DOCTYPE svg PUBLIC "-//W3C//DTD SVG 20010904//EN"
 "http://www.w3.org/TR/2001/REC-SVG-20010904/DTD/svg10.dtd">
<svg version="1.0" xmlns="http://www.w3.org/2000/svg"
 width="500.000000pt" height="500.000000pt" viewBox="0 0 500.000000 500.000000"
 preserveAspectRatio="xMidYMid meet">
<metadata>
Created by potrace 1.11, written by Peter Selinger 2001-2013
</metadata>
<g transform="translate(0.000000,500.000000) scale(0.100000,-0.100000)"
fill="#000000" stroke="none">
<path d="M994 4142 c2 -4 -3 -8 -12 -9 -41 -2 -72 -8 -72 -13 0 -3 -11 -6 -25
-6 -14 -1 -33 -5 -43 -9 -9 -4 -26 -9 -37 -10 -11 -2 -33 -9 -50 -16 -16 -7
-32 -13 -35 -13 -3 -1 -11 -5 -17 -9 -7 -5 -13 -5 -13 -1 0 3 -7 1 -15 -6 -8
-7 -15 -9 -15 -6 0 4 -10 1 -22 -6 -13 -7 -25 -13 -28 -13 -37 -9 -60 -19 -60
-26 0 -5 -6 -9 -13 -9 -29 0 -44 -34 -45 -100 -1 -133 4 -120 -50 -119 -27 1
-58 -3 -69 -9 -11 -6 -23 -9 -26 -6 -5 6 -18 -3 -57 -38 -10 -9 -21 -14 -24
-10 -3 3 -6 -566 -6 -1265 l0 -1270 28 -25 c16 -14 45 -31 66 -38 20 -6 34
-16 30 -21 -3 -5 -10 -7 -15 -4 -5 3 -6 -1 -3 -9 3 -9 11 -16 18 -17 6 0 407
-1 890 -1 l879 -1 32 -32 c38 -40 140 -107 149 -98 3 4 6 1 6 -6 0 -7 4 -10 9
-6 5 3 12 1 15 -3 3 -5 19 -8 36 -7 16 1 30 -2 30 -7 0 -5 6 -6 13 -2 10 6 10
4 0 -7 -32 -33 -16 -36 208 -38 165 -1 226 2 237 11 12 10 14 10 8 1 -9 -17
93 -16 113 1 11 8 13 8 7 -1 -5 -10 6 -13 46 -13 30 0 60 6 67 13 11 9 12 9 7
0 -9 -16 93 -16 113 1 11 8 13 8 7 -1 -10 -18 95 -18 113 -1 10 9 12 10 7 1
-5 -9 13 -12 68 -11 42 0 73 4 71 8 -3 4 3 14 13 21 15 13 16 12 4 -3 -7 -9
-9 -19 -4 -22 5 -3 148 -5 317 -5 226 0 313 3 324 12 12 9 13 9 7 0 -9 -17 93
-16 113 1 11 8 13 8 8 -1 -5 -8 4 -11 32 -10 22 1 37 5 35 9 -3 5 -10 6 -15 3
-5 -4 -17 -1 -26 5 -17 11 -17 11 0 6 9 -3 17 -1 17 4 0 6 -10 11 -22 11 -18
1 -19 2 -5 6 10 3 25 -1 33 -8 12 -10 15 -10 12 1 -2 8 5 14 17 15 11 0 29 6
40 12 11 6 22 12 25 12 41 11 50 15 50 23 0 5 4 7 9 3 6 -3 14 3 20 12 6 10
11 14 11 8 0 -10 100 95 100 106 0 4 7 14 15 22 8 8 16 27 19 43 3 15 9 30 13
33 8 6 9 13 15 69 1 12 6 22 11 22 5 0 6 -9 2 -19 -3 -11 -1 -22 4 -26 7 -3 8
0 5 9 -3 9 -2 16 4 16 6 0 12 -6 15 -12 2 -7 4 -1 4 14 0 18 -4 25 -11 21 -8
-5 -8 -3 0 8 12 16 13 73 2 77 -19 6 -27 1 -22 -13 4 -8 1 -15 -4 -15 -6 0 -9
9 -7 20 2 11 0 20 -5 20 -5 0 -7 7 -4 15 3 8 2 20 -2 27 -5 7 -9 18 -9 23 -1
36 -114 195 -139 195 -4 0 -15 8 -24 17 -16 15 -17 94 -18 1002 -1 542 -2 989
-3 993 0 4 -10 5 -21 3 -13 -2 -24 4 -31 18 -22 43 -116 111 -146 106 -4 -1
-29 -1 -55 0 l-46 1 -1 90 c0 49 -6 98 -12 108 -10 16 -74 52 -74 42 0 -2 -11
3 -25 10 -14 8 -27 15 -30 16 -3 0 -14 4 -25 8 -11 4 -31 12 -45 16 -14 4 -34
11 -45 16 -11 4 -31 9 -45 11 -13 2 -29 8 -35 13 -5 4 -23 9 -40 11 -16 2 -35
7 -42 12 -7 5 -17 6 -22 3 -5 -4 -12 -2 -16 3 -3 5 -14 8 -25 6 -11 -2 -20 0
-20 5 0 5 -172 9 -404 10 -341 0 -414 -2 -472 -16 -38 -9 -75 -17 -81 -17 -7
0 -13 -3 -13 -6 0 -3 -13 -7 -28 -8 -15 -1 -41 -7 -57 -14 -17 -7 -34 -13 -40
-15 -45 -11 -173 -61 -183 -71 -7 -7 -21 -13 -31 -13 -9 0 -22 -5 -29 -12 -9
-9 -12 -7 -12 9 0 25 -39 55 -95 73 -22 7 -45 16 -51 21 -6 5 -19 10 -30 12
-10 1 -23 5 -29 8 -13 8 -82 30 -100 33 -8 1 -18 5 -21 9 -13 13 -74 7 -80 -7
-5 -14 -44 -19 -44 -6 0 3 -8 7 -17 9 -41 7 -884 10 -879 3z m2051 -3242 c-3
-5 -12 -10 -18 -10 -7 0 -6 4 3 10 19 12 23 12 15 0z m240 0 c-3 -5 -12 -10
-18 -10 -7 0 -6 4 3 10 19 12 23 12 15 0z m-742 -20 c3 -11 1 -18 -4 -14 -5 3
-9 12 -9 20 0 20 7 17 13 -6z m80 0 c3 -11 1 -18 -4 -14 -5 3 -9 12 -9 20 0
20 7 17 13 -6z m37 6 c-7 -7 -13 -7 -20 0 -6 6 -3 10 10 10 13 0 16 -4 10 -10z
m43 -6 c3 -11 1 -18 -4 -14 -5 3 -9 12 -9 20 0 20 7 17 13 -6z m80 0 c3 -11 1
-18 -4 -14 -5 3 -9 12 -9 20 0 20 7 17 13 -6z m37 6 c-7 -7 -13 -7 -20 0 -6 6
-3 10 10 10 13 0 16 -4 10 -10z m43 -6 c3 -11 1 -18 -4 -14 -5 3 -9 12 -9 20
0 20 7 17 13 -6z m147 14 c0 0 -8 -8 -18 -17 -16 -15 -18 -15 -18 1 0 10 8 18
18 18 10 0 18 -1 18 -2z m118 -8 c-2 -1 -12 -8 -22 -16 -18 -14 -18 -14 -6 7
8 12 18 19 23 16 4 -3 7 -6 5 -7z m122 8 c0 0 -8 -8 -18 -17 -16 -15 -18 -15
-18 1 0 10 8 18 18 18 10 0 18 -1 18 -2z m118 -8 c-2 -1 -12 -8 -22 -16 -18
-14 -18 -14 -6 7 8 12 18 19 23 16 4 -3 7 -6 5 -7z m122 8 c0 0 -8 -8 -18 -17
-16 -15 -18 -15 -18 1 0 10 8 18 18 18 10 0 18 -1 18 -2z m93 -14 c3 -11 1
-18 -4 -14 -5 3 -9 12 -9 20 0 20 7 17 13 -6z m37 6 c-7 -7 -13 -7 -20 0 -6 6
-3 10 10 10 13 0 16 -4 10 -10z m43 -6 c3 -11 1 -18 -4 -14 -5 3 -9 12 -9 20
0 20 7 17 13 -6z m80 0 c3 -11 1 -18 -4 -14 -5 3 -9 12 -9 20 0 20 7 17 13 -6z
m37 6 c-7 -7 -13 -7 -20 0 -6 6 -3 10 10 10 13 0 16 -4 10 -10z m43 -6 c3 -11
1 -18 -4 -14 -5 3 -9 12 -9 20 0 20 7 17 13 -6z m80 0 c3 -11 1 -18 -4 -14 -5
3 -9 12 -9 20 0 20 7 17 13 -6z m37 6 c-7 -7 -13 -7 -20 0 -6 6 -3 10 10 10
13 0 16 -4 10 -10z m43 -6 c3 -11 1 -18 -4 -14 -5 3 -9 12 -9 20 0 20 7 17 13
-6z m80 0 c3 -11 1 -18 -4 -14 -5 3 -9 12 -9 20 0 20 7 17 13 -6z m37 6 c-7
-7 -13 -7 -20 0 -6 6 -3 10 10 10 13 0 16 -4 10 -10z m43 -6 c3 -11 1 -18 -4
-14 -5 3 -9 12 -9 20 0 20 7 17 13 -6z m147 14 c0 0 -8 -8 -18 -17 -16 -15
-18 -15 -18 1 0 10 8 18 18 18 10 0 18 -1 18 -2z m-1805 -14 c4 -6 -1 -7 -11
-3 -13 5 -15 3 -9 -7 5 -9 4 -11 -4 -6 -6 4 -9 12 -6 17 8 12 22 12 30 -1z
m585 6 c0 -3 -4 -8 -10 -11 -5 -3 -10 -1 -10 4 0 6 5 11 10 11 6 0 10 -2 10
-4z m240 0 c0 -3 -4 -8 -10 -11 -5 -3 -10 -1 -10 4 0 6 5 11 10 11 6 0 10 -2
10 -4z"/>
</g>
</svg>
